<?xml version="1.0" encoding="UTF-8"?>
<svg id="Layer_1" data-name="Layer 1" xmlns="http://www.w3.org/2000/svg" viewBox="0 0 430.92 98.56">
  <g>
    <path d="M138.28,12.25l.09.08c2.63,2.64,5.01,6.89,5.01,9.52v21.19h-30.52c-3.61-1.65-15.79-7.78-32.47-22.1l-5.69,4.42,6.49,6.9v.02s1.22,1.43,1.22,1.43c0,0,4.3-.7,6.86,1.55,2.29,2.02,9.49,7.63,11.1,7.76.08,0,.17.01.25.02h-48.68c-2.04,0-3.4-.93-4.17-2.55-.17-.43-.25-.85-.42-1.19-2.3-5.52-7.57-9.18-12.92-10.79-1.44-.51-2.98-.85-4.59-1.02-.26-.09-.51-.09-.77-.17l-.59.25-.77.25-.11,1.42.02.19c-.76,5.87-4.84,9.35-8.67,11.31-1.79.93-3.74,1.62-5.7,1.96C5.1,44.32.59,52.56.59,60.13v12.58l-.59.93v5.19h3.23v-7.14c0-3.23-.59-7.22.42-10.37.17-.51.43-1.02.77-1.53,1.96-3.15,5.44-2.72,9.52-2.72,5.02,0,9.18-1.62,12.16-5.87,2.72-3.83,3.74-8.33,3.74-13v-7.98l.24.21c16.23,7.32,7.29,15.5,6.33,16.32-1.54.67-3.78,1.59-5.29,1.99,0,0,.34.85.42.93,1.36,2.8,5.69,10.79,10.71,7.82,2.38-1.96,4.33-4.08,5.44-7.14l.08-.34c.68,2.55,2.3,7.06,5.53,7.06h60.5c.68.09,1.1.43,1.1.43v-5.19c1.45,2.64,2.04,4.76,5.02,4.76h29.11c.68,0,1.1.34,1.1.34V11.91c0-2.21-.25-4.34-.85-6.46l-11,6.8Z"/>
    <path d="M309.33,24.9h-1.77v20.08s-.38,5.02-2.88,6.09c-.49.1-1.03.16-1.64.16h-11.73s-4.42-.09-6.2-2.8q-.09-.09-.09-.17s-.09,0-.09-.09-.09-.08-.09-.17-.08-.09-.08-.09c0-.09-.09-.17-.09-.25-.09-.34-.25-.68-.25-1.11,0-.08-.09-.17-.09-.17v-1.28c0-4,2.21-7.82,5.1-10.71l.17-.17s.08,0,.08-.09l1.28.85,2.55-1.78.93-.59,3.49-2.47h-6.12c-1.62.93-3.57,2.21-4.93,3.57l-.09.09c0,.09-.08.09-.08.09l-.17.25c-1.36,1.44-2.46,3.14-3.31,5.19-2.38,5.69-1.79,12.24.76,17.76,1.11,2.38,2.55,4.51,4.34,6.29h-.09l.17.17c.26.25.59.59.93.85l.09.17h7.74c13,0,14.71-12.07,14.71-16.24v-17.59l.59-.85v-5.02h-3.15Z"/>
    <polygon points="292.59 42.4 298.37 47.84 303.3 42.65 297.94 36.96 292.59 42.4"/>
    <path d="M430.66,39.59c-.17-1.19-.51-2.3-.94-3.31-2.3-5.44-7.48-9.18-12.84-10.8-1.53-.43-3.06-.85-4.59-1.02l-.32-.03c-.35-.03-.71,0-1.04.12-.5.15-.85.62-.85,1.14v.73c-1.1,8.5-5.22,13.6-14.31,13.6h-2.96c-3.73-1.72-15.41-7.68-31.35-21.21l-.99-.89-5.7,4.42,6.72,7.14,1.21,1.43s4.3-.7,6.86,1.55c2.06,1.82,8.08,6.52,10.45,7.56h-21.36s-3.1,0-3.1,0c-4.51,0-4.85-4.34-4.93-5.19v-5.35l-2.47,1.78v8.76h-6.49c-1.49,0-2.51-.47-3.23-1.11v-20.82s-5.86.59-8.84,1.53c-2.38.59-4.67,1.45-6.8,2.64-2.63,1.53-5.01,3.57-6.54,6.21-.25.34-.43.68-.68,1.1-.43.93-.77,1.87-.94,2.98-.51,2.3-.25,4.76.59,7.06,1.1,2.72,3.15,4.68,5.61,6.37,5.19,2.72,9.6-4.42,11.05-6.97,0-.17.43-.85.43-.85-1.7-.43-4.25-1.36-5.78-1.96-1.62-.6-3.55-1.21-5.01-2.18-1.36-1.23-2.06-3.26.67-6.39,5.4-6.2,11.98-1.14,11.98-1.14l.03.05.23,8.3v2.38s0,1.7-.17,2.72c-2.63,11.31-17.85,13.34-17.85,13.34l9.78,13.09v-.08l.26.34c5.87-3.83,9.69-9.78,10.37-16.41.51,1.1,1.62,3.32,2.81,3.82h9.89c.68,0,1.11.34,1.11.34v-4.34c.51,1.11,1.62,3.4,2.89,4h5.14s35.23,0,35.23,0c.68.09,1.11.43,1.11.43v-5.19c.57,1.05,1.01,2.02,1.53,2.8.66,1.02,1.43,1.73,2.77,1.91h0c.81-.07,1.56-.21,2.27-.41,7.19-2.08,9.54-10.56,10.14-13.39.17-.76.34-1.61.43-2.38.09-.85.17-1.7.17-2.55v-7.73l.04.03c16.51,7.45,6.98,15.78,6.29,16.36-1.54.66-3.69,1.5-5.05,1.88l.42.94c1.28,2.8,5.7,10.8,10.71,7.74,2.38-1.87,4.33-4.08,5.35-7.05.85-2.47,1.1-5.27.6-7.82Z"/>
    <polygon points="354.02 18 348.67 12.31 343.31 17.75 349.09 23.19 354.02 18"/>
    <polygon points="373.08 63.73 378.86 68.26 383.79 63.99 378.52 58.29 373.08 63.73"/>
  </g>
  <circle cx="302.79" cy="86.42" r="3.84"/>
  <circle cx="134.12" cy="86.48" r="3.84"/>
  <polygon points="156.75 80.49 153.17 80.49 152.43 83.29 150.12 89.28 147.86 83.41 147.08 80.49 143.5 80.49 143.86 83.41 143.86 90.15 143.5 93.06 146.58 93.06 146.22 90.15 146.22 85.24 148.09 90.22 148.81 93.06 151.44 93.06 152.18 90.16 154.03 85.22 154.03 90.15 153.67 93.06 156.75 93.06 156.39 90.15 156.39 83.41 156.75 80.49"/>
  <path d="M166,83.29l-.84-2.8h-2.85l-.76,2.61-2.38,6.13-1.78,3.83h2.83l1.3-3.52h4.33l1.28,3.52h2.94l-1.78-3.83-2.31-5.94ZM162.34,87.35l1.37-3.76,1.34,3.76h-2.71Z"/>
  <path d="M175.44,83.46v6.01c0,.55-.1.97-.3,1.25s-.58.42-1.14.42c-.32,0-.57-.04-.74-.12-.18-.08-.31-.2-.41-.35-.1-.15-.17-.34-.21-.57,0-.03-.05-.07-.13-.13l.34-1.65h-3.02l.34,1.8c.1.92.43,1.65.99,2.21.67.67,1.61,1,2.82,1,.71,0,1.32-.1,1.82-.31.5-.21.91-.49,1.22-.84.31-.35.53-.74.66-1.18.13-.43.19-.87.19-1.31v-6.24l.36-2.97h-3.16l.37,2.97Z"/>
  <polygon points="191.06 80.49 187.98 80.49 188.34 83.37 188.34 88.76 184.55 83.13 183.17 80.49 180.14 80.49 180.5 83.32 180.5 90.01 180.14 93.06 183.21 93.06 182.85 90.01 182.85 84.68 186.42 90.2 187.98 93.06 191.06 93.06 190.7 90.01 190.7 83.37 191.06 80.49"/>
  <path d="M203.18,82.23c-.51-.61-1.14-1.1-1.9-1.47-.76-.37-1.63-.55-2.63-.55s-1.87.18-2.62.55c-.76.37-1.39.86-1.9,1.47-.51.61-.89,1.31-1.14,2.1-.25.79-.38,1.6-.38,2.44s.13,1.66.38,2.44.63,1.48,1.14,2.1c.51.62,1.14,1.11,1.9,1.48.76.37,1.63.55,2.62.55s1.87-.18,2.63-.55c.76-.37,1.39-.86,1.9-1.48.51-.62.89-1.32,1.14-2.1s.38-1.6.38-2.44-.13-1.66-.38-2.44c-.25-.79-.63-1.49-1.14-2.1ZM202.04,88.39c-.14.53-.36,1-.65,1.41-.29.41-.66.73-1.12.98-.45.25-1,.37-1.63.37s-1.18-.12-1.63-.37c-.45-.25-.82-.57-1.11-.98-.29-.41-.51-.88-.65-1.41-.14-.53-.21-1.07-.21-1.62s.07-1.09.21-1.62c.14-.53.36-1,.65-1.41.29-.41.66-.73,1.11-.98.45-.25.99-.37,1.63-.37s1.18.12,1.63.37c.45.25.82.57,1.12.98.29.41.51.88.65,1.41.14.53.21,1.07.21,1.62s-.07,1.09-.21,1.62Z"/>
  <path d="M216.5,82.23c-.51-.61-1.14-1.1-1.9-1.47-.76-.37-1.63-.55-2.63-.55s-1.87.18-2.62.55c-.76.37-1.39.86-1.9,1.47-.51.61-.89,1.31-1.14,2.1-.25.79-.38,1.6-.38,2.44s.13,1.66.38,2.44.63,1.48,1.14,2.1c.51.62,1.14,1.11,1.9,1.48.76.37,1.63.55,2.62.55s1.87-.18,2.63-.55c.76-.37,1.39-.86,1.9-1.48.51-.62.89-1.32,1.14-2.1s.38-1.6.38-2.44-.13-1.66-.38-2.44c-.25-.79-.63-1.49-1.14-2.1ZM215.37,88.39c-.14.53-.36,1-.65,1.41-.29.41-.66.73-1.12.98-.45.25-1,.37-1.63.37s-1.18-.12-1.63-.37c-.45-.25-.82-.57-1.11-.98-.29-.41-.51-.88-.65-1.41-.14-.53-.21-1.07-.21-1.62s.07-1.09.21-1.62c.14-.53.36-1,.65-1.41.29-.41.66-.73,1.11-.98.45-.25.99-.37,1.63-.37s1.18.12,1.63.37c.45.25.82.57,1.12.98.29.41.51.88.65,1.41.14.53.21,1.07.21,1.62s-.07,1.09-.21,1.62Z"/>
  <polygon points="230.5 80.49 227.42 80.49 227.78 83.37 227.78 88.76 223.99 83.13 222.62 80.49 219.58 80.49 219.94 83.32 219.94 90.01 219.58 93.06 222.66 93.06 222.3 90.01 222.3 84.68 225.86 90.2 227.42 93.06 230.5 93.06 230.14 90.01 230.14 83.37 230.5 80.49"/>
  <polygon points="241.17 90.87 241.17 83.41 241.44 80.49 238.47 80.49 238.73 83.46 238.73 93.06 244.2 93.06 247.36 93.32 247.36 90.6 244.06 90.87 241.17 90.87"/>
  <path d="M257.08,83.29l-.84-2.8h-2.85l-.76,2.61-2.38,6.13-1.78,3.83h2.83l1.3-3.52h4.33l1.28,3.52h2.94l-1.78-3.83-2.31-5.94ZM253.43,87.35l1.37-3.76,1.34,3.76h-2.71Z"/>
  <polygon points="272.9 80.49 269.75 80.49 270.11 83.47 270.11 85.51 264.83 85.51 264.83 83.53 265.19 80.49 262.03 80.49 262.39 83.57 262.39 90.07 262.03 93.06 265.19 93.06 264.83 90.11 264.83 87.7 270.11 87.7 270.11 90.07 269.75 93.06 272.9 93.06 272.54 90.05 272.54 83.47 272.9 80.49"/>
  <polygon points="278.05 80.49 274.89 80.49 275.25 83.37 275.25 90.1 274.89 93.06 278.05 93.06 277.69 90 277.69 83.37 278.05 80.49"/>
  <polygon points="292.94 83.41 293.3 80.49 289.72 80.49 288.99 83.29 286.67 89.28 284.41 83.41 283.63 80.49 280.05 80.49 280.41 83.41 280.41 90.15 280.05 93.06 283.13 93.06 282.77 90.15 282.77 85.24 284.64 90.22 285.36 93.06 287.99 93.06 288.73 90.16 290.59 85.22 290.59 90.15 290.23 93.06 293.3 93.06 292.94 90.15 292.94 83.41"/>
  <path d="M222.29,70.58c-.07-.24-.02-.39.1-.52.19-.22.4-.43.64-.61,2.26-1.71,4.36-3.61,6.36-5.61,2.71-2.72,5.19-5.64,7.49-8.71.44-.58.84-1.19,1.24-1.79.43-.63,1.03-.79,1.7-.43,1.61.85,3.08,1.89,4.47,3.07.2.17.22.35.11.56-1.01,2.04-2.21,3.96-3.64,5.74-1.6,1.99-3.37,3.81-5.28,5.5-.17.15-.27.15-.43-.01-1.01-1.08-2.09-2.09-3.24-3.02-.2-.16-.31-.16-.49.03-1.24,1.33-2.59,2.56-3.92,3.8-.96.89-1.71,1.91-2.04,3.21-.15.59-.52.79-1.08.56-.83-.34-1.43-.95-1.94-1.66-.04-.05-.05-.12-.05-.12ZM235.32,66.85c.11,0,.16-.08.22-.13,2.36-2.08,4.48-4.38,6.25-6.99.66-.98,1.27-2,1.8-3.06.05-.1.16-.22.02-.32-.59-.46-1.19-.92-1.78-1.37.22.37.48.7.76,1.01.16.18.17.34.09.55-.22.56-.5,1.08-.82,1.59-1.07,1.7-2.37,3.23-3.69,4.73-.86.98-1.71,1.97-2.41,3.08-.18.29-.34.58-.43.92ZM223.87,71.42c-.19-.17-.38-.34-.56-.52-.35-.34-.34-.58.06-.87,1.31-.97,2.55-2.02,3.72-3.15.22-.22.44-.44.66-.66-1.23.97-2.43,1.97-3.63,2.96-.35.29-.7.57-1.02.88-.29.27-.29.46-.02.75.23.25.51.44.8.61ZM232.55,64.33c-.29-.41-.64-.74-1.03-1.03-.19-.13-.18-.23-.02-.38.43-.42.82-.86,1.19-1.33.26-.34.55-.66.74-1.04-.35.32-.68.65-1,.99-.48.5-.96,1.01-1.4,1.55-.05.06-.2.15-.05.24.54.31,1.04.67,1.57,1.01ZM239.15,53.61c-.2.04-.33.24-.28.44.04.19.25.33.44.29.19-.05.32-.25.28-.44-.05-.21-.23-.33-.43-.28Z"/>
  <path d="M214.8,70.69c-.51.71-1.11,1.33-1.94,1.66-.55.22-.93.03-1.08-.56-.32-1.3-1.08-2.32-2.04-3.21-1.33-1.24-2.67-2.47-3.92-3.8-.18-.19-.29-.19-.49-.03-1.15.94-2.23,1.94-3.24,3.02-.16.17-.26.16-.43.01-1.91-1.69-3.69-3.51-5.28-5.5-1.43-1.78-2.63-3.7-3.64-5.74-.11-.21-.09-.4.11-.56,1.38-1.18,2.86-2.22,4.47-3.07.67-.36,1.27-.2,1.7.43.41.6.81,1.21,1.24,1.79,2.3,3.07,4.78,5.99,7.49,8.71,2,2.01,4.1,3.9,6.36,5.61.24.18.44.39.64.61.12.13.17.28.1.52,0,0-.01.06-.05.12ZM201.39,65.93c-.7-1.11-1.55-2.1-2.41-3.08-1.32-1.51-2.62-3.03-3.69-4.73-.32-.51-.6-1.03-.82-1.59-.08-.21-.07-.38.09-.55.28-.31.54-.64.76-1.01-.59.46-1.19.91-1.78,1.37-.13.11-.03.22.02.32.53,1.06,1.14,2.08,1.8,3.06,1.76,2.62,3.89,4.91,6.25,6.99.06.05.1.13.22.13-.09-.34-.25-.64-.43-.92ZM214.07,70.81c.27-.29.27-.48-.02-.75-.33-.31-.68-.59-1.02-.88-1.2-1-2.4-1.99-3.63-2.96.22.22.43.45.66.66,1.17,1.13,2.41,2.18,3.72,3.15.4.29.42.53.06.87-.18.18-.37.35-.56.52.29-.17.57-.36.8-.61ZM206.16,63.32c.16-.09,0-.17-.05-.24-.44-.54-.92-1.05-1.4-1.55-.32-.34-.65-.67-1-.99.19.39.48.71.74,1.04.37.47.76.92,1.19,1.33.16.15.17.25-.02.38-.4.28-.75.62-1.03,1.03.53-.33,1.03-.7,1.57-1.01ZM197.56,53.89c-.04.19.09.4.28.44.19.04.39-.09.44-.29.04-.2-.09-.39-.28-.44-.2-.04-.39.08-.43.28Z"/>
  <g>
    <path d="M223.56,58.53c-.23.93-.82,1.58-1.7,1.96-.92.4-1.98.46-2.82,1.09-.08.06-.24.1-.3.06-1.2-.83-2.83-.7-3.93-1.74-.28-.27-.5-.62-.67-.97-.24-.47-.19-.84.46-.9,1.34-.12,2.64-.41,3.82-1.09.29-.17.55-.1.81.05,1.12.64,2.35.9,3.62,1.04.32.03.68.01.7.51Z"/>
    <g>
      <path d="M233.79,31.93c0,2.15-1.01,3.44-3.38,4.25-.7.24-1.64.81-2.11.32-.53-.55.27-1.36.54-2.03.62-1.56,1.72-2.73,3.21-3.52.43-.23.88-.74,1.36-.45.5.3.26.99.4,1.43Z"/>
      <path d="M204.03,31.93c0,2.15,1.01,3.44,3.38,4.25.7.24,1.64.81,2.11.32.53-.55-.27-1.36-.54-2.03-.62-1.56-1.72-2.73-3.21-3.52-.43-.23-.88-.74-1.36-.45-.5.3-.26.99-.4,1.43Z"/>
      <g>
        <path d="M252.83,14.45c-.66.69-.73,1.39-.52,2.26.34,1.46.4,2.98.89,4.4-.02-1.28.26-2.52.35-3.77.19-2.59.15-5.16-.77-7.64-.8-2.17-2.6-3.91-5.62-2.78-2.34.87-4.07,2.54-5.76,4.25,2.25-.33,3.64-1.99,5.19-3.42-.06.61-.27,1.13-.53,1.62-.18.33-.08.41.27.42.75.02,1.34-.24,1.81-.83.51-.64,1.02-1.28,1.48-2.06.21.97.08,1.85-.34,2.73-.08.17-.26.32-.12.55.47.78,1.3.86,1.9.18.38-.43.59-1,1.17-1.43.1,1.02,0,1.92-.59,2.62-.42.5-.56.91-.21,1.47.09.15.13.33.17.51.11.49.31.45.62.14.37-.37.6-.87,1.2-1.22-.15.78-.1,1.52-.57,2.01Z"/>
        <path d="M267.47,18.11c-.31-.19-.55.22-.74.44-1,1.15-1.95,2.35-2.97,3.48-1.51,1.67-3.18,3.1-5.55,3.41-2.35.3-4.53-.74-5.6-2.76-.53-1-.84-2.07-1.08-3.18-.38-1.8-.58-3.64-1.15-5.39-.54-1.64-1.4-3.04-3.3-3.36-1.17-.2-2.32-.01-3.45.34-.33.1-.42.24-.27.59.19.43.29.89.43,1.34.12.39-.15.97.27,1.16.36.17.81-.16,1.22-.27,1.19-.31,2.39-.45,3.58-.03.43.15.86.34,1,.84-.22.12-.4.04-.57.02-1.36-.19-2.69,0-3.99.38-1.49.44-1.48.46-1.56,2.03-.03.74,0,.77.68.54,1.18-.39,2.37-.7,3.62-.66.62.02,1.24.05,1.79.44-.21.25-.47.22-.7.25-1.59.21-3.08.76-4.58,1.31-.79.29-1,.72-.93,1.5.07.76.04.78.77.55,1.69-.54,3.41-.97,5.19-1.12.33-.03.69-.11,1,.1-.11.25-.3.28-.46.33-1.81.65-3.62,1.33-5.45,1.93-.67.22-.93.54-.74,1.22.05.17.08.35.12.52.08.42.29.54.72.41,1.91-.59,3.82-1.16,5.74-1.73.26-.08.49-.31.87-.2-.31.5-.74.78-1.17,1.05-1.2.76-2.51,1.3-3.86,1.73-1.85.59-1.91.79-.67,2.34.03.03.05.07.08.11.16.22.36.24.59.13,2.06-.95,4.15-1.82,6.02-3.14.16-.11.29-.33.57-.27-.07.41-.32.68-.54.95-1.17,1.48-2.73,2.45-4.36,3.31-.98.52-.96.47-.09,1.2.59.49,1.05.52,1.71.08,1.68-1.12,3.15-2.45,4.34-4.09.13-.17.2-.44.57-.46-.48,1.85-1.19,3.49-2.76,4.62-.4.29-.8.58-1.19.88-.11.08-.3.17-.06.36.56.44,2.01.46,2.58.02,1.48-1.14,2.68-2.52,3.51-4.19.1-.21.15-.48.47-.61.11.61-.03,1.17-.12,1.73-.23,1.37-1.03,2.4-2.05,3.3.9-.09,1.71-.41,2.52-.7.78-.28,1.16-.8,1.29-1.63.12-.81.2-1.62.27-2.49.34.2.4.47.48.71.13.43.22.87.31,1.31.09.45.28.46.65.23.94-.61,1.44-1.42,1.43-2.56,0-.39-.12-.82.15-1.26.28.41.43.8.56,1.21.07.21.19.42.42.18.41-.43.9-.83.87-1.53-.03-.64-.02-1.28-.03-2.02.51.38.51.95.92,1.37,1.2-1.71,2.2-3.45,2.7-5.44.07-.29.28-.7,0-.87Z"/>
        <path d="M240.46,10.37c.74-.7.76-.91.2-1.76-.15-.24-.36-.39-.58-.55-1.51-1.09-3.1-2.07-4.68-3.06-.37-.23-.77-.43-1.07-.78.27-.21.52-.1.75-.06,2.1.33,3.86,1.42,5.57,2.58.58.39,1.16.77,1.39,1.5.09.28.35.51.6.2.37-.46,1.49-.45,1.15-1.26-.45-1.06-1.25-1.96-2.15-2.73-.88-.76-1.78-1.51-2.56-2.38-.12-.13-.35-.22-.25-.48.29,0,.52.14.77.24,2.26.88,3.94,2.47,5.3,4.42.29.42.55.44,1,.26.49-.2.52-.49.41-.9-.22-.8-.43-1.6-.75-2.37-.25-.61-.48-1.23-.6-1.91.36.02.43.27.55.44.83,1.15,1.56,2.36,2.1,3.67.19.46.48.56.89.46.49-.11.25-.48.24-.77-.04-.77-.38-1.49-.52-2.32.35.09.48.27.61.44.57.76,1.01,1.58,1.28,2.5.06.2.05.53.35.49.27-.04.17-.37.23-.57.08-.31-.11-.68.2-.94-1.52-1.81-3.5-2.93-5.68-3.71-2.51-.9-5.08-1.35-7.73-.67-2.45.63-4.26,2.25-5.96,4-3.2,3.31-5.71,7.13-8.08,11.04v-.02s-2.15,2.56.63,3.92c.21.13.44.25.67.38.03.01.07.03.12.06,1.3.72,5.49,1.67,5.49,1.67v.02s.06,0,.09,0c.31.02.63-.03.94-.08.76-.12,1.06-.86.62-1.47-.22-.31-.5-.48-.87-.57-1.2-.29-2.39-.61-3.53-1.11-1.07-.47-2-1.11-2.63-2.13-.2-.33-.41-.67-.34-1.17,2,1.47,4.19,2.3,6.52,2.77.77.15,1.41.38,1.79,1.1.16.3.32.3.52,0,.48-.7.96-1.42,1.51-2.07.36-.43.22-.7-.08-1.03-.21-.23-.47-.24-.73-.29-1.85-.4-3.54-1.14-4.97-2.41-.5-.44-.88-.96-1.17-1.55-.06-.11-.14-.25,0-.36.11-.09.21,0,.31.06.42.25.85.51,1.27.76,1.58.95,3.17,1.9,5.05,2.12.54.06,1,.16,1.29.68.17.31.36.33.6.02.46-.58.96-1.13,1.43-1.7.38-.46.33-.71-.22-.98-.16-.08-.34-.13-.5-.2-2.05-.94-4.03-1.98-5.6-3.65-.27-.29-.55-.58-.62-1.13.37.15.67.23.94.37,2.22,1.12,4.43,2.27,6.67,3.36.33.16.35.89.9.53.35-.23.62-.59.92-.88Z"/>
        <path d="M185.24,14.45c.66.69.73,1.39.52,2.26-.34,1.46-.4,2.98-.89,4.4.02-1.28-.26-2.52-.35-3.77-.19-2.59-.15-5.16.77-7.64.8-2.17,2.6-3.91,5.62-2.78,2.34.87,4.07,2.54,5.76,4.25-2.25-.33-3.64-1.99-5.19-3.42.06.61.27,1.13.53,1.62.18.33.08.41-.27.42-.75.02-1.34-.24-1.81-.83-.51-.64-1.02-1.28-1.48-2.06-.21.97-.08,1.85.34,2.73.08.17.26.32.12.55-.47.78-1.3.86-1.9.18-.38-.43-.59-1-1.17-1.43-.1,1.02,0,1.92.59,2.62.42.5.56.91.21,1.47-.09.15-.13.33-.17.51-.11.49-.31.45-.62.14-.37-.37-.6-.87-1.2-1.22.15.78.1,1.52.57,2.01Z"/>
        <path d="M170.6,18.11c.31-.19.55.22.74.44,1,1.15,1.95,2.35,2.97,3.48,1.51,1.67,3.18,3.1,5.55,3.41,2.35.3,4.53-.74,5.6-2.76.53-1,.84-2.07,1.08-3.18.38-1.8.58-3.64,1.15-5.39.54-1.64,1.4-3.04,3.3-3.36,1.17-.2,2.32-.01,3.45.34.33.1.42.24.27.59-.19.43-.29.89-.43,1.34-.12.39.15.97-.27,1.16-.36.17-.81-.16-1.22-.27-1.19-.31-2.39-.45-3.58-.03-.43.15-.86.34-1,.84.22.12.4.04.57.02,1.36-.19,2.69,0,3.99.38,1.49.44,1.48.46,1.56,2.03.03.74,0,.77-.68.54-1.18-.39-2.37-.7-3.62-.66-.62.02-1.24.05-1.79.44.21.25.47.22.7.25,1.59.21,3.08.76,4.58,1.31.79.29,1,.72.93,1.5-.07.76-.04.78-.77.55-1.69-.54-3.41-.97-5.19-1.12-.33-.03-.69-.11-1,.1.11.25.3.28.46.33,1.81.65,3.62,1.33,5.45,1.93.67.22.93.54.74,1.22-.05.17-.08.35-.12.52-.08.42-.29.54-.72.41-1.91-.59-3.82-1.16-5.74-1.73-.26-.08-.49-.31-.87-.2.31.5.74.78,1.17,1.05,1.2.76,2.51,1.3,3.86,1.73,1.85.59,1.91.79.67,2.34-.03.03-.05.07-.08.11-.16.22-.36.24-.59.13-2.06-.95-4.15-1.82-6.02-3.14-.16-.11-.29-.33-.57-.27.07.41.32.68.54.95,1.17,1.48,2.73,2.45,4.36,3.31.98.52.96.47.09,1.2-.59.49-1.05.52-1.71.08-1.68-1.12-3.15-2.45-4.34-4.09-.13-.17-.2-.44-.57-.46.48,1.85,1.19,3.49,2.76,4.62.4.29.8.58,1.19.88.11.08.3.17.06.36-.56.44-2.01.46-2.58.02-1.48-1.14-2.68-2.52-3.51-4.19-.1-.21-.15-.48-.47-.61-.11.61.03,1.17.12,1.73.23,1.37,1.03,2.4,2.05,3.3-.9-.09-1.71-.41-2.52-.7-.78-.28-1.16-.8-1.29-1.63-.12-.81-.2-1.62-.27-2.49-.34.2-.4.47-.48.71-.13.43-.22.87-.31,1.31-.09.45-.28.46-.65.23-.94-.61-1.44-1.42-1.43-2.56,0-.39.12-.82-.15-1.26-.28.41-.43.8-.56,1.21-.07.21-.19.42-.42.18-.41-.43-.9-.83-.87-1.53.03-.64.02-1.28.03-2.02-.51.38-.51.95-.92,1.37-1.2-1.71-2.2-3.45-2.7-5.44-.07-.29-.28-.7,0-.87Z"/>
        <path d="M197.62,10.37c-.74-.7-.76-.91-.2-1.76.15-.24.36-.39.58-.55,1.51-1.09,3.1-2.07,4.68-3.06.37-.23.77-.43,1.07-.78-.27-.21-.52-.1-.75-.06-2.1.33-3.86,1.42-5.57,2.58-.58.39-1.16.77-1.39,1.5-.09.28-.35.51-.6.2-.37-.46-1.49-.45-1.15-1.26.45-1.06,1.25-1.96,2.15-2.73.88-.76,1.78-1.51,2.56-2.38.12-.13.35-.22.25-.48-.29,0-.52.14-.77.24-2.26.88-3.94,2.47-5.3,4.42-.29.42-.55.44-1,.26-.49-.2-.52-.49-.41-.9.22-.8.43-1.6.75-2.37.25-.61.48-1.23.6-1.91-.36.02-.43.27-.55.44-.83,1.15-1.56,2.36-2.1,3.67-.19.46-.48.56-.89.46-.49-.11-.25-.48-.24-.77.04-.77.38-1.49.52-2.32-.35.09-.48.27-.61.44-.57.76-1.01,1.58-1.28,2.5-.06.2-.05.53-.35.49-.27-.04-.17-.37-.23-.57-.08-.31.11-.68-.2-.94,1.52-1.81,3.5-2.93,5.68-3.71,2.51-.9,5.08-1.35,7.73-.67,2.45.63,4.26,2.25,5.96,4,3.2,3.31,5.71,7.13,8.08,11.04v-.02s2.15,2.56-.63,3.92c-.21.13-.44.25-.67.38-.03.01-.07.03-.12.06-1.3.72-5.49,1.67-5.49,1.67v.02s-.06,0-.09,0c-.31.02-.63-.03-.94-.08-.76-.12-1.06-.86-.62-1.47.22-.31.5-.48.87-.57,1.2-.29,2.39-.61,3.53-1.11,1.07-.47,2-1.11,2.63-2.13.2-.33.41-.67.34-1.17-2,1.47-4.19,2.3-6.52,2.77-.77.15-1.41.38-1.79,1.1-.16.3-.32.3-.52,0-.48-.7-.96-1.42-1.51-2.07-.36-.43-.22-.7.08-1.03.21-.23.47-.24.73-.29,1.85-.4,3.54-1.14,4.97-2.41.5-.44.88-.96,1.17-1.55.06-.11.14-.25,0-.36-.11-.09-.21,0-.31.06-.42.25-.85.51-1.27.76-1.58.95-3.17,1.9-5.05,2.12-.54.06-1,.16-1.29.68-.17.31-.36.33-.6.02-.46-.58-.96-1.13-1.43-1.7-.38-.46-.33-.71.22-.98.16-.08.34-.13.5-.2,2.05-.94,4.03-1.98,5.6-3.65.27-.29.55-.58.62-1.13-.37.15-.67.23-.94.37-2.22,1.12-4.43,2.27-6.67,3.36-.33.16-.35.89-.9.53-.35-.23-.62-.59-.92-.88Z"/>
        <path d="M246.92,33.31c-.95-2.33-3.45-4.77-4.9-5.83-1.93-1.46-3.95-2.24-4.16-2.4,0,0,0,0,0,0-3.78-1.42-7.26-.66-10.49,1.98-.2.16-.36.43-.75.33,1.07-1.98,2.58-3.35,4.67-4.06.25-.09.67-.07.69-.42.02-.41-.42-.44-.7-.56-.94-.38-1.93-.62-2.92-.81-1.28-.25-2.56-.49-3.73-1.1-.39-.2-.72-.43-.99-.68l-.12-.05s-1.84-1.15-4.55-1.28h0s-.04,0-.06,0c-.02,0-.04,0-.06,0h0c-2.7.14-4.55,1.29-4.55,1.29l-.11.05c-.27.25-.6.48-.99.68-1.17.61-2.45.85-3.73,1.1-.99.2-1.98.43-2.92.81-.28.11-.72.15-.7.56.02.35.43.33.69.42,2.09.71,3.6,2.08,4.67,4.06-.39.1-.56-.17-.75-.33-3.23-2.64-6.71-3.4-10.49-1.98,0,0,0,0,0,0-.21.15-2.23.94-4.16,2.4-1.45,1.07-3.95,3.51-4.9,5.83-.2.5-.1.67.46.64,1.39-.07,2.75.1,4.09.48.3.08.6.16.9.2,0,0,.02,0,.03,0,.34.05.68.07,1.03.06.67-.02,1.35,0,2.02-.14,1.56-.32,3.2-1.49,3.7-2.68-.32-.15-.57.06-.84.15-1.05.32-2.11.55-3.18.65-.8.07-1.62-.07-2.33-.45-.79-.42-1.22-1,1.34-1.34,0,0,0,0,.01,0,1.12-.04,2.55-.34,3.17-.89,2.06-1.8,4.26-1.53,6.14.5,1.95,2.12,2.83,4.75,3.38,7.52.17.88.33,1.77.24,2.93-.19-.53-.29-.82-.4-1.12-.56-1.57-1.6-2.49-3.32-2.69-1.29-.15-2.75-.04-3.54-1.46-.07-.13-.19-.23-.35-.15-.19.1-.18.3-.19.48-.13,2.37.15,4.62,1.7,6.55,1.13,1.41,2.38,2.72,3.1,4.42.5,1.18.8,2.4,1.03,3.64.05.27-.03.6.38.76.57-.81.76-1.86,1.68-2.69-.07.68-.14,1.22-.18,1.75-.05.61-.13,1.23-.1,1.84.2,3.88,2.8,5.62,6.5,4.4.8-.26.82-.84.82-1.45,0-2.23-1.23-3.68-3.15-4.5-1.08-.46-1.12-1.02-.69-1.9.41-.85.94-1.61,1.79-2.33.04,1.06-.49,1.89-.57,3.07,1.02-1.08,2.04-1.74,3.32-1.85,1.28.11,2.3.77,3.32,1.85-.08-1.19-.61-2.01-.57-3.07.85.72,1.37,1.48,1.79,2.33.43.88.38,1.44-.69,1.9-1.93.82-3.16,2.27-3.15,4.5,0,.61.02,1.19.82,1.45,3.7,1.22,6.3-.52,6.5-4.4.03-.61-.05-1.22-.1-1.84-.04-.54-.11-1.07-.18-1.75.92.83,1.12,1.88,1.68,2.69.41-.16.33-.49.38-.76.23-1.24.53-2.46,1.03-3.64.72-1.7,1.98-3.01,3.1-4.42,1.55-1.93,1.83-4.19,1.7-6.55-.01-.18,0-.37-.19-.48-.16-.09-.28.02-.35.15-.8,1.41-2.26,1.31-3.54,1.46-1.73.2-2.76,1.12-3.32,2.69-.1.3-.21.59-.4,1.12-.08-1.16.07-2.05.24-2.93.54-2.77,1.42-5.4,3.38-7.52,1.87-2.04,4.08-2.31,6.14-.5.62.54,2.05.85,3.17.89,0,0,0,0,.01,0,2.57.34,2.14.92,1.34,1.34-.71.38-1.52.52-2.33.45-1.07-.1-2.13-.33-3.18-.65-.27-.08-.52-.3-.84-.15.5,1.19,2.14,2.36,3.7,2.68.67.14,1.35.12,2.02.14.34,0,.69,0,1.03-.06,0,0,.02,0,.03,0,.31-.04.61-.11.9-.2,1.33-.38,2.7-.55,4.09-.48.56.03.67-.14.46-.64Z"/>
      </g>
    </g>
  </g>
</svg>