<?xml version="1.0" encoding="UTF-8"?>
<svg id="Layer_1" data-name="Layer 1" xmlns="http://www.w3.org/2000/svg" viewBox="0 0 379.16 94.16">
  <path d="M-177.13,305.01c2.59-2.63-4.72-12.47-6.03-15.43-6.19-14.03-6.47-25.39,2.74-38.2l11.27-9.24c-6.49-1.26-16.95-2.61-16.97-10.99,12.99,1.97,24.65,3.34,31.13-10.31.95-1.99,4.92-13.58,4.88-15.19-.1-3.84-7.18-6.64-10.05-10.22-8.53-10.65-13.26-47.17-16.42-62.17-1.54-7.32-4.48-14.33-4.55-21.91,12.93-.2,21.66-1.29,25.68,12.77,4.97,17.36,6.7,37.62,11.73,55.15.42,1.47.68,2.97,2.04,3.93,1.5-1.34,2.24-3.19,2.97-5,8.68-21.61,14.3-46.24,22.48-68.37,6.51-17.63,10.41-29.63,32.97-27.43l-44.92,131.28c-4.16,8.5-7.45,17.85-15.99,22.95,3.55.24,8.9,1.5,12.32.33.93-.32,5.82-7.18,8.94-9.03,1.46-.87,9.7-4.59,9.7-1.29v16.47c0,.2,2.67-.04,3.98.48,14.24,5.65,27.94,16.02,35.33,29.6,5.03,9.24,4.76,12.88,6.68,22.27.58,2.83,2.18,10.44,5.39,9.58,21.07-2.52,49.76,3.23,69.9-.11,1.95-.32,8.98-3.75,10.22-5.25,5.34-6.43,5.64-32.56-5.63-35.13l-64.5-.44c-6.74.36-3.64-10.32-2.15-14.23,1.96-5.15,8.7-10.2,14.16-10.81,11.27-1.25,41.79-1.32,52.99,0,13.85,1.63,27.88,13.63,31.96,26.95,1.26,4.12.48,3.77,2.46,7.72,3.32,6.62-.4,29.77-2.22,37.51-.53,2.25-4.89,16.71-5.75,17.21l-97.46.56-7.85-2.14-161.9.05c-3.01.57-4.37,5.21-5.9,7.04-13.7,16.36-29.48,21.44-49.55,11.5-21.33-10.56-28.31-34.05-37.24-54.61-10-23.01-18.77-46.64-28.62-69.71,4.29-1.21,7.42,1.07,10.72,1.75,4.69.97,7.97.74,12.61,3.37,9,5.09,12.16,22.26,16.13,31.79,6.91,16.58,16.5,41.4,26.85,55.52.87,1.18,8.66,9.21,9.3,9.35,8.08,1.73,13.35-.42,17.31-7.43,11.12-19.69,3.24-48.58,5.91-69.95.68-5.47,5.29-9.09,10.31-10.66,3.44-1.08,15.7-2.37,15.7,2.72v67.38c5.74-1.27,45.29,1.67,46.94,0ZM-137.17,259.09c-16.85-.48-31.04,2.67-31.06,22.47-.01,21.38,15.47,22.96,33.05,23.46l-2-45.93ZM-115.21,269.57v36.44h29.96c1.3-8.44-1.95-14.46-5.98-21.47-1.58-2.75-11.29-15.36-13.89-16.03-2.18-.56-9.36-1.29-10.09,1.07Z"/>
  <g>
    <path d="M310.33,12.27c.16,1.39-.12,2.69-.44,4.03-2.86,12.13-10.47,31.45-15.07,43.66-3.88,10.31-6.46,24.21-20.04,24.85-4.12.19-12.6-1.3-11.33-6.89,1.12-1.07,8.82,3.49,12.84-2.62,6.54-9.93-.86-9.01-3.91-16.74-1.25-3.18-7.5-31.08-6.52-32.42,1.98-2.71,10.59-.43,11.98,3.1l6.54,26.78,12.13-37.15c3.34-4.88,7.71-7.35,13.82-6.6Z"/>
    <path d="M189.64,10.27c10.53,1.52,13.13,9.19,11.98,18.9,5.41-6,17.44-5.12,21.8,1.62,3.81,5.89,1.82,23,2.08,30.74.16,4.69,3.97,8.65-3.38,7.35-15.83-2.79-3.61-28.76-11.15-33.64-14.67-9.49-7.27,29.14-9.81,32.78-1.35,1.93-8.94.52-11.53.93V10.27Z"/>
    <path d="M378.17,26.18l.99,42.77c-4.78.62-9.83-.93-10.99-5.96-3.1,2.59-3.39,5.46-7.9,6.53-22.29,5.27-24.37-37.33-3.32-43.09,6.55-1.79,14.41.51,21.21-.25ZM366.19,34.14c-13.21-4.06-15.62,24.63-7.27,26.71,3.98.99,7.27-5.42,7.27-8.31v-18.4Z"/>
    <path d="M263.46,26.18c.53,14.25-1.54,28.84,1.99,42.77-6.06.77-9.52-.69-12.47-5.96-1.52,2.65-3.99,6.01-7.18,6.75-21.67,4.98-24.36-36.72-3.34-43.11,6.94-2.11,13.87.17,21.01-.45ZM251.48,34.14c-12.82-3.46-15.27,24.2-7.01,26.46,3.14.86,7.01-3.64,7.01-6.07v-20.39Z"/>
    <path d="M184.65,65.47c.07.69,1.57,2.02.99,3.48-5.32.71-9.2-1.12-11.46-5.96-10.3,12.41-23.84,7.3-25.43-8.47-.38-3.79-.59-26.53,1.23-28.1,1.6-1.37,10.72-2.04,10.72.26v28.84c0,.73,2.56,3.97,3.69,4.32,13.03,3.98,6.23-26.33,8.78-31.67,1.79-3.76,11.47-3.82,11.47-1.49,0,11.99-1.18,27.28,0,38.79Z"/>
    <path d="M51.69.54c7.03-1.6,13.34.3,16.8,6.7,7.97,14.72-4.51,33.23-12.02,45.78-7.34-11.93-18.95-29.61-13.2-43.98,1.16-2.89,5.29-7.79,8.42-8.5Z"/>
    <path d="M58.96,53.04c7.62-13.02,18.02-32.42,35.45-32.85,15.39-.38,19.33,14.68,7.45,24.41-5.35,4.38-18.64,8.45-25.44,8.45h-17.46Z"/>
    <path d="M315.32,68.96c-3.54-.64-11.15,1.95-11.97-2.48-.66-3.55-.43-16.94.09-20.8.33-2.49,6.34-20.19,7.47-20.44,2.85.4,4.68,1.91,4.43,4.94,6.94-8.43,22.64-5.56,23.95,5.45,1.22,10.23-1.27,22.4,1.99,32.83-20.52,4.19-10.73-28.58-15.21-33.06-4.97-4.97-10.74,2.93-10.74,8.21v25.36Z"/>
    <path d="M52.97,53.04c-12.1-.29-26.83-.06-37.79-5.58C-4.66,37.46,3.63,15.02,25.04,21.72c7.26,2.27,12.39,8.14,17.38,13.5l10.56,17.81Z"/>
    <path d="M143.75,73.43c-1.72,10.35-15.26,13.51-23.71,9.71-2.37-1.06-5.02-6.64-1.93-6.05,8.84,1.71,12.78,2.48,13.71-7.61,1.32-14.29-2.13-32.9.2-46.55,1.05-6.15,5.77-11.08,11.73-12.67v63.16Z"/>
    <path d="M59.96,55.04c14.68.7,32.61-3.42,45.38,5.96,15.08,11.08,4.93,29.29-10.48,22.39-5.41-2.42-12.34-12.3-17.47-16.4s-10.89-5.93-15.67-9.24c-1.16-.8-2.19-.78-1.76-2.71Z"/>
    <path d="M51.98,55.03c.37,1.78-.51,1.97-1.66,2.83-5.73,4.31-12.71,6.65-18.77,12.12-3.83,3.47-6.75,8.6-10.57,11.35-17.34,12.47-30.65-11.3-11.84-21.75,1.83-1.02,10.95-4.54,12.41-4.54h30.42Z"/>
    <path d="M55.58,58.06c9.13,6.12,17.62,19.61,11.57,30.5-4.34,7.83-18.59,7.38-22.54-.81-5.81-12.05,3.54-21.37,10.97-29.69Z"/>
  </g>
</svg>