<?xml version="1.0" encoding="UTF-8"?>
<svg id="Layer_1" data-name="Layer 1" xmlns="http://www.w3.org/2000/svg" viewBox="0 0 1250.14 950.79">
  <defs>
    <style>
      .cls-1 {
        fill: #333;
      }

      .cls-2 {
        fill: #fcfdf8;
      }

      .cls-3 {
        fill: #fff;
      }

      .cls-4 {
        fill: #1b1b1b;
      }
    </style>
  </defs>
  <rect class="cls-3" x="291.53" y="545.96" width="9.09" height="15.16"/>
  <path d="M1191.41,427.07c-34.15-43.02-81.78-80.99-141.58-112.85-114.78-61.16-265.63-94.84-424.76-94.84s-309.99,33.68-424.77,94.84c-59.8,31.86-107.43,69.83-141.58,112.85C19.76,476.16,0,529.33,0,585.08s19.76,108.92,58.73,158.01c34.15,43.02,81.78,80.99,141.58,112.85,114.78,61.16,265.63,94.84,424.77,94.84s309.99-33.68,424.77-94.84c59.8-31.86,107.43-69.83,141.58-112.85,38.97-49.09,58.73-102.26,58.73-158.01s-19.76-108.92-58.73-158.01ZM1137.34,729.37l-81.54,37.65-29.12,38.14h-113.68v54.57H299.11v-54.57h-98.53v-62.15h-74.27v-327.41h91.76c2.21-1.4,4.46-2.73,6.77-3.99v-27.84h65.18v-46.99h78.82v-7.58h21.22v-18.19h181.89v25.77h87.92v-33.35h74.27v18.19h156.13v15.16h56.08v28.8h40.93v13.64h39.41v37.9l101.56,26.53,9.09,285.73Z"/>
  <path class="cls-4" d="M1153.61,445.88c-30.2-40.34-72.93-76.28-127-106.82-107.81-60.9-250.41-94.44-401.54-94.44s-293.73,33.54-401.54,94.44c-54.07,30.54-96.8,66.48-127,106.82-32.72,43.69-49.3,90.53-49.3,139.2s16.59,95.51,49.3,139.2c30.2,40.34,72.93,76.28,127,106.82,107.81,60.9,250.41,94.43,401.54,94.43s293.73-33.54,401.54-94.43c54.07-30.54,96.8-66.48,127-106.82,32.72-43.69,49.3-90.53,49.3-139.2s-16.59-95.51-49.3-139.2ZM625.07,896.07c-293.56,0-531.54-139.58-531.54-311.77s237.98-311.77,531.54-311.77,531.54,139.58,531.54,311.77-237.98,311.77-531.54,311.77Z"/>
  <path class="cls-1" d="M627.03,272.53c-293.56,0-531.54,139.58-531.54,311.77s237.98,311.77,531.54,311.77,531.54-139.58,531.54-311.77-237.98-311.77-531.54-311.77ZM1084.14,682.11c-23.48,32.56-57.67,62.14-101.63,87.92-45.48,26.68-98.74,47.69-158.28,62.47-62.36,15.47-128.71,23.32-197.21,23.32s-134.84-7.84-197.21-23.32c-59.55-14.77-112.8-35.79-158.28-62.47-43.96-25.78-78.15-55.36-101.63-87.92-22.67-31.44-34.17-64.35-34.17-97.81s11.49-66.37,34.17-97.81c23.48-32.56,57.67-62.14,101.63-87.92,45.48-26.68,98.74-47.69,158.28-62.47,62.36-15.47,128.71-23.32,197.21-23.32s134.84,7.84,197.21,23.32c59.55,14.77,112.8,35.79,158.28,62.47,43.96,25.78,78.15,55.36,101.63,87.92,22.67,31.44,34.17,64.34,34.17,97.81s-11.49,66.37-34.17,97.81Z"/>
  <path d="M609.18,265.94s-157.93-47.98-188.3-78.34c-30.36-30.36-30.36-79.59,0-109.95s79.59-30.36,109.95,0c30.36,30.36,78.34,188.3,78.34,188.3Z"/>
  <path d="M639.54,265.94s157.93-47.98,188.3-78.34,30.36-79.59,0-109.95c-30.36-30.36-79.59-30.36-109.95,0-30.36,30.36-78.34,188.3-78.34,188.3Z"/>
  <path d="M624.36,281.5s-82.19-153.92-82.19-199.31c0-45.39,36.8-82.19,82.19-82.19,45.39,0,82.19,36.8,82.19,82.19,0,45.39-82.19,199.31-82.19,199.31Z"/>
  <circle class="cls-2" cx="621.7" cy="269.94" r="104.06"/>
  <path d="M517.67,280.8c5.43,52.66,49.93,93.73,104.03,93.73s98.6-41.07,104.03-93.73h-208.05Z"/>
  <path d="M627.03,281.5s-141.73,75.68-183.52,75.68-75.68-33.88-75.68-75.68,33.88-75.68,75.68-75.68,183.52,75.68,183.52,75.68Z"/>
  <path d="M621.7,281.5s141.73,75.68,183.52,75.68c41.8,0,75.68-33.88,75.68-75.68,0-41.8-33.88-75.68-75.68-75.68-41.8,0-183.52,75.68-183.52,75.68Z"/>
  <g>
    <path d="M743.27,810.4c1.21-.08,2.43-.15,3.64-.21,9.54-.47,20.66.42,28.02,7.26,2.9,2.69,5.08,6.34,5.12,10.39.03,2.99-1.2,5.69-3.31,7.78-5.46,5.4-13.54,5.98-20.76,5.95-16.93-2.74-14.46-10.08-25.58-18.98-3.82-3.06-8.18-4.64-12.7-6.34,4.13-1.49,8.33-2.72,12.61-3.7,4.28-.98,8.6-1.69,12.96-2.15Z"/>
    <path d="M558.7,711.51c1.19-.07.97-.01,1.84.63.04,2.06-.83,4.24-1.98,5.94-4.12,6.08-13.37,7.36-20.06,8.38,7.23,3.58,14.33,7.5,21.47,11.25-.79,5.86-2.12,10.68-6.12,15.21-6.83,7.7-17.95,10.65-27.87,11.26-7.92.48-14.51-.57-20.58-5.93,0-.09-.02-.19.01-.28.27-.8.31-.91,1.12-.85,8.89.69,26.16,1.92,33.34-3.98,1.03-.85,1.12-1.05,1.28-2.31-1.96-2.99-13.27-4.64-17.1-5.68-3.79-1.03-7.79-2.19-9.87-5.79-.21-1.21-.28-2.11.26-3.25,6.2-13.02,31.43-20.43,44.26-24.6Z"/>
    <path d="M994.34,430.81c8.36-.83,15.82-.37,23.27,3.86.54.31,1.08.64,1.6.97.53.34,1.05.69,1.56,1.05.51.36,1.01.74,1.5,1.12.49.39.97.79,1.44,1.2.47.41.93.83,1.38,1.27.45.43.89.88,1.32,1.33.43.46.85.92,1.25,1.4.41.48.8.96,1.18,1.46.38.5.75,1,1.11,1.52.36.51.7,1.04,1.03,1.57.33.53.65,1.07.95,1.62.3.55.59,1.1.87,1.66.28.56.54,1.13.79,1.7.25.57.48,1.15.7,1.74s.43,1.18.62,1.77c.19.6.37,1.2.53,1.8.16.59.31,1.18.44,1.77.13.59.25,1.19.35,1.79.1.6.19,1.2.26,1.8.07.6.13,1.21.18,1.81.04.61.07,1.21.09,1.82.01.61.01,1.21,0,1.82-.02.61-.05,1.21-.09,1.82-.05.61-.11,1.21-.18,1.81-.07.6-.16,1.2-.27,1.8-.1.6-.22,1.2-.36,1.79-.13.59-.28,1.18-.44,1.77-.16.59-.34,1.17-.53,1.75-.19.58-.39,1.15-.61,1.72-.22.57-.45,1.13-.7,1.69-.25.56-.51,1.11-.78,1.65-.27.54-.56,1.08-.86,1.61-2.68,4.65-5.96,8.26-10.36,11.33-7.84,5.47-44.44,20.82-53.64,23.3-3.11,3.06-23.68,10.32-28.91,12.34l20.17-53.85c3.51-9.36,6.55-19.44,11.07-28.31,5.67-11.13,12.29-16.22,24.05-20.08Z"/>
    <path d="M610.66,682.74c1.24,1.7.53,7.75.5,10.04,3.65.8,7.38,1.7,10.74,3.38,4.98,2.48,7.27,5.95,9.05,11.07-5.96,2.24-13.56,5.24-17.41,10.62-5.79,8.09-.57,46.5-3.17,58.81-1.42,6.72-5.91,13.54-9.08,19.61-4.52,2.51-8.33,3.46-13.48,4.08-13.11,1.58-27.08.61-40.3.6-20.28,0-40.86.66-61.09-1.01-13.01-1.08-26.13-3.41-34.94-13.85-2.34-4.7-3.38-9.47-2.78-14.73,1.43-12.48,10.58-21.37,19.92-28.77-1.12,3.31-2.07,6.78-2.11,10.3-.05,4.93,1.63,9.2,5.19,12.64,5.11,4.93,13.77,7.01,20.57,8,12.03,1.76,24.89.92,37.05.92h61.12c.07-14.68.52-29.38.67-44.05.09-9.06-.49-18.55.47-27.54.39-3.65,1.12-7.73,3.1-10.89,3.55-5.67,9.83-7.84,16-9.22Z"/>
    <path d="M801.68,769.45c-.17-12.06-5.97-24.1-14.7-32.33-1.19-1.12-3.32-3.34-4.97-3.48-6.22,3.58-15.31,8.21-17.25,15.72-.87,3.37.15,6.71,2.01,9.55,4.34,6.65,12.02,11.5,18.7,15.49l-73.96.04c-4.48-13.97-11.04-27.99-24.78-34.95-.45-.23-.91-.45-1.37-.65-.46-.21-.93-.4-1.4-.59-.47-.18-.95-.35-1.43-.52-.48-.16-.96-.31-1.45-.44-.49-.14-.98-.26-1.47-.37-.49-.11-.99-.21-1.49-.3-.5-.09-1-.16-1.5-.23-.5-.06-1.01-.11-1.51-.15-.5-.04-1.01-.06-1.51-.08-.51-.01-1.01-.01-1.52,0-.51.01-1.01.04-1.52.07-.5.04-1.01.09-1.51.15-.5.06-1,.14-1.5.22-.5.09-.99.19-1.49.3-.49.11-.98.23-1.47.37-.49.14-.97.28-1.45.44-14.94,4.96-24.88,19.68-31.52,33.18-3.13,6.37-8.36,16.48-5.94,23.58.68,2.01,1.96,3.55,3.92,4.41,7.97,3.48,48.65,1.53,60.31,1.76-8.11,9.95-19.03,17.69-30.13,23.98-22.91,11.57-44.4,13.85-69.54,9.74,3.75,8.44,9.07,13.76,17.76,17.12,17.96,6.95,39.74,5.17,57.07-2.68,21.05-9.54,35.38-27.26,43.99-48.27h47.5c8.59-.01,18.32.84,26.76-.74,3.79-.71,7.19-2.14,10-4.86,6.26-6.08,8.49-17.08,8.37-25.48ZM681.77,774.03c-7.88.05-26.02,1.6-32.57-1.21-1.82-.78-2.42-1.61-3.1-3.38.16-1.35.39-2.21,1.17-3.34,2.81-4.05,6.29-5.41,10.89-6.35,2.67-.25,5.5-.3,8.16-.1,10.93.83,18.98,6.06,25.87,14.27l-10.42.12Z"/>
    <path d="M770.34,473.9c4.98-.49,10.05-.47,15.05-.47,20.54,0,44.35,5.34,59.18,20.36,13.77,13.94,10.39,32.57,10.28,50.49-1.85-2.65-3.75-5.23-6.12-7.45-15.53-14.53-44.92-17.9-65.48-16.92-19.65.93-39.74,8.91-53.02,23.76-9.03,10.09-13.7,22.23-12.95,35.8.79,14.26,7.51,27.12,18.17,36.52,18.98,16.75,43.42,19.42,67.64,17.93,16.94-1.05,38.21-3.38,50.01-16.76l.44-.33.55.75c.16,12.52,2.68,30.21-5.57,40.45-11.85,14.71-33.07,20.37-51.18,22.33-35.52,3.84-76.26-4.72-104.43-27.56-19.42-15.75-31.84-37.49-34.44-62.48-.17-1.65-.31-3.3-.4-4.95-.09-1.65-.14-3.31-.16-4.97-.01-1.66.02-3.31.09-4.97.07-1.65.18-3.31.33-4.96.15-1.65.34-3.29.57-4.94.23-1.64.5-3.27.81-4.9.31-1.63.66-3.25,1.05-4.86.39-1.61.82-3.21,1.29-4.8.47-1.59.98-3.17,1.52-4.73.55-1.56,1.13-3.11,1.75-4.65.62-1.53,1.28-3.05,1.98-4.56.7-1.5,1.43-2.99,2.2-4.46.77-1.47,1.57-2.92,2.41-4.34.84-1.43,1.71-2.84,2.62-4.22.91-1.39,1.85-2.75,2.83-4.09.98-1.34,1.98-2.65,3.02-3.94,22.49-27.47,55.67-38.69,89.94-42.08Z"/>
    <path d="M871.89,410.06c3.7-.06,7.4-.09,11.1-.09,12.72-.02,27.86.08,37.45,9.85,4.19,4.26,6.61,9.82,7.7,15.65,2.2,11.8.93,25.31.92,37.37l-.05,68.67c12.06.88,23.16,3.76,33.55,10.11,12.18,7.45,21.3,17.99,30.8,28.43,19.45,21.4,43.24,49.63,67.98,64.19,6.64,3.91,13.73,6.51,20.93,9.17.35,3.55-2.44,7.92-4.4,10.77-5.13,7.47-12.61,11.53-21.4,13.14-13.13,2.4-28.57.29-40.1-6.63-4.54-2.72-8.41-6.2-12.77-9.13l-.41-.27c-.81-2.42-16.44-16.57-19.83-20.11-18.95-19.73-36.68-40.46-54.4-61.28,1.06,32.08.07,64.51.06,96.63-5.56.25-11.13.55-16.7.58-11.23.06-23.39-1.12-31.72-9.53-4.39-4.44-7.13-10.45-8.07-16.6-1.39-9.08-.7-18.98-.69-28.17l.04-46.19.02-166.57Z"/>
    <path d="M585.79,475l.94-.02c15.13-.23,35.56-.09,46.98,11.23,8.89,8.81,8.94,20.66,9.02,32.34l.02,47.67c0,32.11.68,66.16-23.85,90.73-19.44,19.47-47.63,24.81-74.12,24.94-27.75.14-56.23-7.7-76.32-27.78-1.25-1.26-2.47-2.56-3.64-3.89-1.17-1.34-2.3-2.71-3.38-4.12-1.08-1.41-2.11-2.85-3.1-4.33-.99-1.48-1.92-2.98-2.81-4.52-.89-1.54-1.73-3.1-2.51-4.7-.79-1.59-1.52-3.21-2.2-4.85-.68-1.64-1.31-3.3-1.88-4.98-.57-1.68-1.09-3.38-1.55-5.09-5.78-21.61-3.71-45.97-3.71-68.19l.08-74.44c2.85-.05,5.71-.04,8.56.02,13.7.36,29.85,1.3,40.17,11.51,4.11,4.07,6.57,9.57,7.72,15.18,1.47,7.14.91,14.87.9,22.13l-.12,40.08c-.04,13.07-.85,26.94,2.25,39.72,1.9,7.82,5.32,15.25,10.97,21.08,8.14,8.4,19.79,12.16,31.29,12.32,10.23.14,20.44-2.7,27.82-10.06,5.91-5.89,9.2-13.87,10.8-21.94,3.16-15.96,1.6-33.74,1.57-49.98l.1-80.05Z"/>
    <path d="M421.9,456.49c-9.1-19.7-26.21-32.92-46.31-40.19-25.05-9.07-54.83-8.61-81.11-7.1-24.93,1.44-51.39,4.64-75.24,12.31l.04,153.37-.05,43.83c0,9.02-.6,18.54.71,27.48,1.12,7.67,4.11,15,9.69,20.52,12.78,12.65,33.13,9.73,49.59,9.61l.03-83.41v-18.96c30.91,11.51,68.69,12.29,99.03-1.64,20.74-9.53,37.2-25.92,45.17-47.47,7.83-21.15,7.98-47.73-1.54-68.33ZM364.59,512.83c-4.05,10.21-11.31,16.3-21.19,20.58-19.35,6.84-44.46,3.3-64.17-.86l-.03-74.66c6.95-1.63,13.95-2.51,21.05-3.09,10.52-1.86,36.62.24,46.19,3.7,7.84,2.83,13.95,7.81,17.43,15.48,5.04,11.13,5.22,27.52.72,38.85Z"/>
  </g>
</svg>