<?xml version="1.0" encoding="UTF-8"?>
<svg id="Layer_1" data-name="Layer 1" xmlns="http://www.w3.org/2000/svg" viewBox="0 0 146.99 57.71">
  <path d="M128.96,35.69c-.69.86-1.24,1.56-1.81,2.24-2.27,2.73-5.1,3.69-8.06,2.75-2.76-.88-4.6-3.49-4.85-6.91-.03-.35-.05-.71-.1-1.35-.92,1.03-1.76,1.81-2.42,2.72-3.17,4.37-7.6,6.01-12.8,6.08-1.68.03-3.37.1-4.99-.48-1.98-.71-2.88-2.45-2.3-4.39.34-1.12,1.08-1.62,1.97-1.33,1.03.33,1.39,1.09,1.03,2.21-.13.39-.36.82-.02,1.15.42.4.86.03,1.24-.16.98-.48,1.74-1.25,2.36-2.12,3.17-4.46,5.67-9.2,6.32-14.75.13-1.09-.01-2.14-.48-3.11-.64-1.34-1.76-1.67-3.05-.95-1.13.64-1.97,1.6-2.75,2.61-1.84,2.38-3.21,5.01-4.41,7.78-3.31,7.67-7.16,15.1-10.38,22.81-.63,1.51-1.27,3.01-1.42,4.68-.1,1.1-.31,2.26-1.73,2.49-1.25.21-2.82-.57-3.42-1.73-.49-.94-.58-1.94-.44-2.99.33-2.37,1.21-4.58,1.99-6.82,1.12-3.21,2.7-6.21,3.93-9.37.15-.38.3-.75.25-1.33-.55.53-1.13,1.05-1.66,1.6-1.92,2.02-4.2,3.4-6.98,3.81-2.43.35-4.88.57-7.35.33-2.29-.22-3.59-1.28-4.18-3.36-.42-1.47.53-2.9,1.84-2.81,1.16.09,1.77.91,1.66,2.12-.04.4-.5.92.07,1.21.52.27,1.05-.02,1.47-.37.95-.79,1.88-1.67,2.43-2.75,1.37-2.7,3.29-5.09,4.3-7.99.78-2.26,1.39-4.55,1.36-6.95-.01-1.16-.07-2.41-1.3-2.97-1.27-.58-2.41.02-3.39.83-1.55,1.27-2.61,2.93-3.56,4.66-2.18,3.99-3.89,8.2-5.63,12.4-.96,2.33-2.25,4.54-3.29,6.85-1.71,3.81-3.79,7.45-5.06,11.45-.21.66-.46,1.32-.42,2.03.1,1.64-1.13,2.53-2.76,2-1.75-.57-2.91-2.67-2.52-4.68.34-1.73.81-3.42,1.4-5.09,2.74-7.73,6.23-15.15,9.43-22.69.78-1.85,1.52-3.72,2.25-5.58.51-1.3,1-2.6.89-4.04-.06-.83.4-1.26,1.2-1.43,2.51-.55,4.22.26,5.24,2.62.41.93.85.54,1.28.13,1.08-1.04,2.29-1.85,3.73-2.31,4.45-1.41,8.87,1.69,9.04,6.45.18,5.25-1.78,9.84-4.73,14.06-.72,1.03-1.58,1.95-2.59,3.17,3.49-1.59,5.96-3.93,8.19-6.57,3.51-4.14,5.56-9.03,7.25-14.11.19-.58.32-1.2.33-1.81,0-1.14.6-1.57,1.65-1.73,2.29-.36,3.96.55,4.7,2.74.28.84.59.55,1.01.19,1.22-1.04,2.46-2.05,4.04-2.5,3.76-1.08,7.58,1.08,8.67,4.86.85,2.93.34,5.77-.63,8.55-1.24,3.56-2.92,6.86-5.72,9.48-.2.19-.36.42-.7.82,1.65-.45,2.84-1.18,3.93-2.14,3.99-3.52,7.11-7.67,9.43-12.45,1.22-2.51,2.69-4.91,4.86-6.73,2.58-2.17,5.52-3.4,8.96-2.69,2.34.49,3.43,2.17,3.11,4.52-.12.87-1.04,1.54-1.97,1.43-.94-.11-1.53-.98-1.39-1.96.06-.44.63-.97.07-1.3-.47-.28-1.03.11-1.49.35-.74.38-1.39.9-1.86,1.58-2.96,4.27-5.39,8.8-6.36,13.97-.29,1.53-.11,3.03.64,4.41.67,1.23,1.63,1.44,2.74.58,1.36-1.05,2.3-2.45,3.1-3.93,2.74-5.04,5.41-10.11,7.49-15.47.34-.89.65-1.78.49-2.75-.12-.71.26-1.04.85-1.3,2.1-.91,4.67.33,5.41,2.63.62,1.91.15,3.74-.51,5.52-1.14,3.05-2.9,5.78-4.4,8.64-.87,1.67-1.74,3.34-2.45,5.09-.22.53-.47,1.16.05,1.6.55.47,1.08,0,1.54-.32.88-.62,1.6-1.42,2.21-2.29,2.26-3.22,4.56-6.42,6.26-9.98.18-.37.37-.73.58-1.08.33-.55.82-.84,1.45-.56.69.31.81.92.51,1.55-.57,1.18-1.18,2.34-1.81,3.49-1.65,2.98-3.55,5.8-5.74,8.41-1.28,1.52-2.79,2.78-4.6,3.62-2.23,1.03-4.57-.05-5.21-2.42-.2-.73-.31-1.48-.5-2.41Z"/>
  <path d="M52.35,19.98c0-3.53-.56-6.94-2.08-10.15-.53-1.12-1.19-2.15-2.04-3.05-2.74-2.9-6.4-3.46-9.83-1.43-8.76,5.2-13.08,16.81-7.41,26.43.46.78.93,1.54,1.37,2.33.8,1.44.58,2.19-.87,3.01-2.55,1.45-5.23,1.17-7.36-.85-2.68-2.53-3.8-5.85-4.55-9.35-2.1-9.79,2.93-19.24,11-24.1,2.65-1.6,5.78-2.12,8.99-1.96,8.75.42,14.27,7.38,14.99,15.06,1.12,11.96-2.96,22.12-11.51,30.5-5.55,5.44-12.22,8.69-19.93,9.42-6,.56-11.8-.57-16.5-4.58-3.51-2.99-5.53-7.04-6.22-11.68-.94-6.36-.14-12.5,2.28-18.42,3.05-7.45,7.52-13.84,13.95-18.84C19.37.17,22.39-.21,25.65.09c.89.08,1.88.31,2.12,1.37.24,1.07-.56,1.63-1.32,2.15-8.45,5.83-13.69,13.76-15.95,23.78-.98,4.35-1.33,8.64-.39,13,.39,1.8,1.08,3.52,1.94,5.16,2.81,5.34,8.82,8.1,15.11,6.96,5.07-.92,9.5-3.24,13.17-6.74,6.5-6.19,10.64-13.74,11.87-22.73.14-1.01.1-2.04.15-3.07Z"/>
</svg>