<?xml version="1.0" encoding="UTF-8"?>
<svg id="Layer_1" data-name="Layer 1" xmlns="http://www.w3.org/2000/svg" viewBox="0 0 23.41 7">
  <path d="M17.87,4.89c-.27.8-1.75.38-2.11.25l1.64-4.68c.84-.27,1.73-.42,2.77-.45,2.16-.07,3.31.67,3.23,2.09-.06,1.07-.79,2.44-1.7,3.2-1.01.84-2.63,1.32-4.69,1.39h-.1c-1.11.03-2.15-.11-3.02-.41.28-.28.91-.82,1.32-.67.68.25,1.4.43,2.13.41,1.71-.06,3.68-1.06,4.06-3.7.06-.38-.04-.76-.26-1.04-.26-.32-.67-.49-1.16-.48-.25,0-.5.04-.71.1l-.05.02-1.37,3.97Z"/>
  <path d="M12.38.19c-1.05.04-1.93.18-2.77.46l-1.65,4.74c.36.14,1.84.56,2.11-.25l1.36-3.96.02-.05h.05c.2-.07.46-.11.71-.12.48-.02.9.15,1.15.48.22.28.32.66.26,1.05-.39,2.67-2.36,3.69-4.07,3.75-1.99.07-3.79-1.06-4.36-2.74l-.02-.06.05-.04L8.82.48c-.33-.05-1.93-.04-2.38.38l-3.03,2.68-.16.14.03.11c.86,2.98,4.36,3.21,5.83,3.17h.1c2.06-.07,3.68-.56,4.69-1.41.91-.77,1.65-2.16,1.71-3.24.08-1.44-1.06-2.19-3.23-2.12Z"/>
  <path d="M4.16.38c-.38-.06-1.96-.17-2.23.63l-1.39,3.95L.03,6.35c-.28.8,1.32.64,1.81.62L4.16.38Z"/>
</svg>