<?xml version="1.0" encoding="UTF-8"?>
<svg id="Layer_1" data-name="Layer 1" xmlns="http://www.w3.org/2000/svg" viewBox="0 0 20.25 6.34">
  <path d="M1.28,5.87s-.08-.03-.11-.04c-.02,0-.02-.02-.02-.04.29-.97.59-1.93.89-2.9.29-.93.53-1.68.81-2.33,0,0,.02-.02.04-.05.01-.01.03-.02.05-.03.43-.19.93.29,1.16.6,0,0,0,.02,0,.03-.43,1.08-.85,2.17-1.27,3.25-.07.19-.11.35-.12.48-.02.39.52.49.82.46.88-.07,1.76-.55,2.14-1.37.59-1.26-.32-2.89-1.55-3.38C2.94.09,1.76.47.9,1.34c-.4.41-.68.87-.83,1.38,0,.01-.02.02-.03.01,0,0,0,0,0,0h-.01s-.03-.04-.03-.07c.12-.85.5-1.51,1.12-1.99C1.82.15,2.81-.08,3.66.03c.89.11,1.91.62,2.58,1.21,1.13,1,1.37,2.47.53,3.74-.68,1.02-2.22,1.44-3.39,1.35-.7-.05-1.4-.2-2.11-.46Z"/>
  <path d="M12.24,2.94s.03.04.06.02c.26-.18.6-.22.91-.17.32.05.53.32.56.62.13,1.12-.9,2.16-1.83,2.63-.32.16-.62.23-.91.22-.35-.02-.57-.25-.71-.55,0,0-.01-.01-.02,0,0,0,0,0,0,0-.27.38-.65.57-1.13.55-.2,0-.46-.17-.55-.36,0-.01-.02-.02-.04-.01,0,0,0,0,0,0-.33.27-.71.39-1.14.37-.04,0-.09-.02-.15-.04-.46-.2-.45-.85-.33-1.25.24-.81.99-1.54,1.72-1.97.27-.16.58-.29.89-.16.1.04.16,0,.25,0,.28,0,.56,0,.84,0,.01,0,.02,0,.02.02,0,0,0,0,0,0-.36.84-.66,1.71-.97,2.58,0,.02,0,.05.03.05,0,0,0,0,0,0,.1.02.37-.13.46-.19.16-.11.27-.25.33-.42.49-1.27.99-2.56,1.5-3.86.02-.04.04-.06.08-.07l1.03-.2s.04,0,.04.03c0,0,0,.02,0,.02-.32.67-.61,1.36-.9,2.04,0,0-.01.02-.02.04-.01.02-.02.03-.01.04ZM11.89,4.07c-.22.37-.39.83-.51,1.24-.09.3.27.31.43.17.35-.3.98-1.35.89-1.81-.03-.15-.18-.16-.29-.1-.22.12-.39.29-.52.5ZM8.08,4.83c-.06.14-.11.28-.15.43-.03.14.04.31.22.25.12-.04.28-.17.37-.28.33-.35.57-.76.75-1.21.18-.46-.21-.5-.48-.27-.32.27-.54.7-.71,1.08Z"/>
  <path d="M16.93,5.9c-.09.06-.17.15-.26.2-.39.22-.89.22-1.26-.03-.12-.08-.17-.18-.15-.3,0-.02-.01-.04-.03-.04,0,0-.02,0-.03,0-.43.4-1.32.88-1.71.11-.06-.12-.06-.22-.02-.35.05-.18.11-.36.18-.54.26-.7.53-1.4.8-2.09,0-.02.03-.03.05-.03h1s.01,0,.01.01c0,0,0,0,0,0-.32.81-.64,1.62-.95,2.43-.02.04-.02.08,0,.11,0,.01.02.02.04.02.3,0,.58-.34.74-.57.41-.59.69-1.31.94-1.98,0-.02.02-.03.05-.03h.98s.02,0,.02.02c0,0,0,0,0,0-.34.86-.64,1.73-.93,2.6-.01.04,0,.08.05.1,0,0,0,0,0,0,.3.05.71-.2.8-.48.23-.72.47-1.45.72-2.17,0-.02.02-.03.04-.03h.95s.02,0,.02.02c0,.03,0,.05-.01.08-.02.05,0,.06.04.03.3-.17.57-.26.9-.07.38.22.48.83.14,1.15-.14.13-.29.19-.45.17-.08,0-.09-.09-.06-.15.06-.14.14-.3.06-.4-.09-.1-.21-.13-.35-.09-.37.11-.58.56-.72.88-.26.55-.47,1.13-.63,1.73,0,.02-.02.03-.04.03h-.96s-.04-.01-.03-.04l.12-.3s0-.05-.03-.02Z"/>
</svg>