<?xml version="1.0" encoding="UTF-8"?>
<svg id="Layer_1" data-name="Layer 1" xmlns="http://www.w3.org/2000/svg" viewBox="0 0 19.12 4.75">
  <polygon points="11.22 4.44 13.85 4.44 13.85 3.37 12.56 3.37 12.56 2.73 13.85 2.73 13.85 1.95 12.56 1.95 12.56 1.38 13.85 1.38 13.85 .34 11.22 .34 11.22 4.44"/>
  <path d="M19.12,4.44l-2.47-4.44c-.83,1.47-2.47,4.44-2.47,4.44h1.4l.23-.45h1.68l.22.45h1.41ZM16.13,3.32s.51-1.05.51-1.05c0,0,.5,1.06.5,1.05h-1.02Z"/>
  <path d="M7.73.34h-1.43l2.35,4.41S11,.34,11,.34h-1.43l-.92,1.84c-.07-.13-.92-1.84-.92-1.84Z"/>
  <polygon points="1.34 2.85 3.52 4.75 3.52 .34 2.18 .34 2.18 1.93 0 .03 0 4.44 1.34 4.44 1.34 2.85"/>
  <path d="M4.74.34v4.11h1.34V.34s-1.34,0-1.34,0Z"/>
</svg>