<?xml version="1.0" encoding="UTF-8"?>
<svg id="Layer_1" data-name="Layer 1" xmlns="http://www.w3.org/2000/svg" xmlns:xlink="http://www.w3.org/1999/xlink" viewBox="0 0 783.12 415.77">
  <defs>
    <style>
      .cls-1 {
        clip-path: url(#clippath-3);
      }

      .cls-2 {
        clip-path: url(#clippath-2);
      }
    </style>
    <clipPath id="clippath-2">
      <path d="M103.26,64.66C38.24,102.71,2.44,152.52,2.44,204.94s35.8,102.23,100.82,140.28c6.11,3.57,12.43,7.01,18.93,10.31-63.51-38.71-103.88-88.64-103.88-141.1S55.13,109.28,122,70.14C195.5,27.14,302.92,3.45,414.52,3.45c21.71,0,43.06.9,63.91,2.66C447.62,1.95,415.42-.19,382.34-.19,273.83-.19,174.72,22.84,103.26,64.66"/>
    </clipPath>
    <clipPath id="clippath-3">
      <path d="M767.26,201.16c0,53.9-36.83,105.14-103.7,144.28-73.5,43.01-180.92,66.69-292.52,66.69-21.72,0-43.06-.9-63.91-2.66,30.82,4.16,63.01,6.3,96.08,6.3,108.52,0,207.63-23.03,279.09-64.85,65.02-38.05,100.82-87.87,100.82-140.28s-35.8-102.23-100.82-140.28c-6.11-3.57-12.43-7-18.93-10.3,63.51,38.71,103.88,88.64,103.88,141.1"/>
    </clipPath>
  </defs>
  <path d="M588.62,61c-10.54-3.12-10.48,8.42-10.48,8.42v215.57c0,18.6-1.59,38.16-18,38.16,0,0-11.66.21-20.07-7.8,18.59-22.18,40.1-86.86-27.01-78.43-38.13,4.8-53.7,23.31-56.06,27.85-2.95,5.63-7.11,40.45-7.11,40.45,29.89-4.65,44.69,16.63,44.69,16.63,0,0-10.96,16.95-32.06,15.71-36.35,0-30.94-56.31-30.94-56.31V39.58c0-3.2-1.6-3.84-3.2-4-1.59-.15-26.03-.63-29.55-.63s-3.52,4.47-3.52,4.47c0,0-.18,195.58-.18,243.41s-19.51,61.67-40.48,62.31c-21.09.65-30.06-12.77-33.62-14.85-3.57-2.08-5.64.9-5.64.9,0,0-14.04,15.83-16.64,20.16-2,3.31-.5,5.27.66,6.51.26.29,20.88,24.21,55.34,23.37,45.75-1.1,57.92-34.32,57.92-34.32,4.13,9.04,11.23,31.85,48.61,31.85,34.76,0,57.76-33.65,57.76-33.65,0,0,13.65,14.1,42.82,15.62,55.11-1.37,52.66-62.71,52.66-62.71V122.16c0-3.16-.57-8.05,5.33-5.98,22.27,7.8,89.21,39.17,91.24,89.36,2.57,63.69-66.3,81.66-72.16,83.07-3.96.95-4.44,5.73-4.44,5.73,0,0-.06,20.47-.06,28.18,0,8.27,5.59,7.23,5.59,7.23,0,0,106.32-27.41,106.32-121.57s-147.18-144.05-157.73-147.19M500.92,276.59c5.96-2.92,16.31-4.55,19.61-1.19,5.03,5.12-8.86,17.01-8.86,17.01,0,0-8.14-9.25-17.63-11.23,0,0,2.44-2.42,6.89-4.6"/>
  <path d="M276.27,246.48c23.09-.91,23.22-29.48,23.22-29.48,0,0,.01-160.24,0-167.84,0-6.53-5.19-5.84-5.19-5.84,0,0-23.98,4.3-27.82,5.17-3.59.81-3.59,5.62-3.59,5.62v148.3c0,29.75-25.89,24.2-32.64,21.73-5.51-2.02-7.63,3.01-7.63,3.01,0,0-7.19,19.89-9.19,27.21-1.21,4.44,2.07,6.68,5.16,7.27,3.5.66,18.16,1.63,32.57,7.85,24.11,10.42,21.64,42.52,2.59,48.02-17.58,5.08-41.94-4.24-55.71-8.69-13.78-4.46-104.06-36.42-104.06-99.23s87.41-98.34,93.04-100.47c5.65-2.14,4.89-6.71,4.89-6.71v-27.27c0-1.53-.76-6-6.56-3.51-7.04,3.02-128.31,44.77-128.25,140.38.06,98.08,142.89,141.52,182.69,143.54,37.47,1.89,60.54-18.2,63.9-56.8,3.34-38.59-27.43-52.29-27.43-52.29"/>
  <path d="M191.19,361.46c-8.75,0-15.85,7.09-15.85,15.84s7.1,15.83,15.85,15.83,15.84-7.08,15.84-15.83-7.1-15.84-15.84-15.84"/>
  <path d="M229.31,371.97c-8.75,0-15.85,7.09-15.85,15.84s7.1,15.83,15.85,15.83,15.84-7.09,15.84-15.83-7.1-15.84-15.84-15.84"/>
  <path d="M360.89,323.98c3.97,0,4.58-2.18,4.44-3.81V41.22c0-5.62-4.62-5.26-4.62-5.26,0,0-22.09,1.64-27.2,2.19-5.14.54-4.85,4.46-4.85,4.46v225.9s-4.57,55.46,32.23,55.46"/>
  <g>
    <path d="M103.26,64.66C38.24,102.71,2.44,152.52,2.44,204.94s35.8,102.23,100.82,140.28c6.11,3.57,12.43,7.01,18.93,10.31-63.51-38.71-103.88-88.64-103.88-141.1S55.13,109.28,122,70.14C195.5,27.14,302.92,3.45,414.52,3.45c21.71,0,43.06.9,63.91,2.66C447.62,1.95,415.42-.19,382.34-.19,273.83-.19,174.72,22.84,103.26,64.66"/>
    <g class="cls-2">
      <rect x="-1.97" y="-103.48" width="484.82" height="562.29" transform="translate(-2.54 351.84) rotate(-72.1)"/>
    </g>
  </g>
  <g>
    <path d="M767.26,201.16c0,53.9-36.83,105.14-103.7,144.28-73.5,43.01-180.92,66.69-292.52,66.69-21.72,0-43.06-.9-63.91-2.66,30.82,4.16,63.01,6.3,96.08,6.3,108.52,0,207.63-23.03,279.09-64.85,65.02-38.05,100.82-87.87,100.82-140.28s-35.8-102.23-100.82-140.28c-6.11-3.57-12.43-7-18.93-10.3,63.51,38.71,103.88,88.64,103.88,141.1"/>
    <g class="cls-1">
      <rect x="257.39" y="-59.02" width="575.47" height="593.85" transform="translate(18.16 513.73) rotate(-51.21)"/>
    </g>
  </g>
</svg>