<?xml version="1.0" encoding="UTF-8"?>
<svg id="Layer_1" data-name="Layer 1" xmlns="http://www.w3.org/2000/svg" viewBox="0 0 2419.89 613.17">
  <g>
    <path d="M201.85,285.24c-.4.84-.79,1.65-1.14,2.28-3.65,9.74-11.23,17.87-21.2,22.54-11.51,5.38-25.3,5.52-37.67.53.15,2.64.51,5.4,1.31,8.03,1.39,4.69,5.2,10.02,10.24,10.7,4.25.6,8.98-2,13.94-4.74l2.32-1.26c14.59-7.8,31.15-11.68,48.04-11.68,18.56,0,37.51,4.69,54.65,14.02,8.46,4.62,16.58,10.47,24.2,17.45.87-7.79,3.92-15.47,8.85-22.15,7.98-10.81,19.56-17.5,31.79-18.34,6.79-.44,13.51.69,19.45,1.71,1.34.23,2.65.44,3.95.63-4.7-14.72-13.91-26.18-25.15-31.08-7.41-3.21-16.46-3.17-24.21.09-6.21,2.6-10.77,7.02-12.85,12.46l-.28.74c-1.45,3.86-4.14,11.08-11.47,11.73-9.1.71-12.46-8.64-13.95-12.65-5.03-13.56-19.06-23.28-33.5-23.28-.17,0-.34,0-.52,0-7.92.13-27.21,2.25-35.14,19.08-.68,1.07-1.18,2.16-1.68,3.18Z"/>
    <path d="M303.98,132.8c-2.52,4.63-5.77,9.9-10.71,13.88-5.32,4.33-12.44,6.98-21.74,8.11-7.94.93-16.09.68-24.29-.79-.24,10.26,1.6,18.91,5.49,25.76,5.41,9.5,15.58,15.33,24.67,14.24,6.93-.85,13.17-5.28,19.78-9.97,2.39-1.7,4.7-3.35,7.05-4.85,10.47-6.76,26.63-11.41,37.73-2.26l.59.52c5.66,4.92,7.88,12.38,9.67,18.38l.74,2.44c2.02,6.5,4.28,10.68,7.3,13.52,2.82,2.33,8.58,3.79,12.46,3.46.83-3.4,1.73-6.31,2.81-9.03,7.48-18.99,22.8-34.95,42.02-43.79,14.34-6.6,35.52-9.63,50.16,2.27-4.71-29.02-28.35-52.91-59.67-55.85l-23.49-2.21-9.31-21.64c-10.68-24.83-34.38-39.5-59.28-40.32,6.83,29.48,2.5,61.56-11.98,88.13Z"/>
    <path d="M96.71,209.06c13.89,3.31,33.52,5.09,46.11-5.87,8.88-7.72,11.65-20.9,14.33-33.65l.35-1.65c.39-1.82.77-3.63,1.18-5.41,2.52-11.01,10.81-36.91,33.35-39.64,11.53-1.39,21.17,4.06,30.54,9.33,2.32,1.31,4.63,2.61,6.95,3.79,3.77,1.9,7.93,3.5,12.38,4.77h.07s.45.02.45.02c.77.1,1.47.34,2.16.73,8.34,2.04,17.16,2.61,25.54,1.61,7.02-.84,12.17-2.66,15.73-5.55,3.38-2.74,5.81-6.77,7.76-10.36,12.75-23.36,16.72-54.6,10.52-81.81-8.34,1.22-16.61,3.97-24.37,8.57l-20.29,12.03-20.17-12.02c-34.67-20.65-79.59-6.09-95.56,30.98l-9.3,21.59-23.41,2.14c-40.19,3.67-67.98,41.86-59.11,81.23l4.49,19.95c11.9-5.98,26.01-6.31,40.29-.77Z"/>
    <path d="M370.71,227.04c-7.01-.13-14.4-2.74-18.53-6.73-5.88-5.53-8.68-12.85-10.46-18.61l-.77-2.51c-1.56-5.27-3.02-10.22-6.26-13.04-6.01-4.95-16.38-2.07-24.09,2.91-1.92,1.23-3.8,2.55-5.67,3.88l-.86.61c-7.51,5.35-15.3,10.89-25.24,12.12-7.18.9-14.75-.85-21.48-4.85.38,6.48.19,12.63-.56,17.16-1.84,11.04-8.45,20.22-17.28,23.97-6.06,2.57-12.73,2.6-18.62,2.64-7.29.06-12.96.11-16.08,3.8-2.97,3.52-2.37,9.48-1.72,15.79.01.12.02.24.04.36,10.41-9.48,24.62-13.16,35.36-13.33,19.55-.07,38.48,12.68,45.24,30.94.86,2.28,1.48,3.58,1.93,4.32.53-1.02,1.11-2.58,1.44-3.46l.31-.8c3.24-8.45,10.08-15.24,19.28-19.11,5.34-2.24,11.14-3.36,16.9-3.36s11.42,1.11,16.55,3.34c15.63,6.74,27.85,22.62,33.01,42.72,4.55-.4,12.77-2.04,15.57-8.58,2.94-6.91-1.99-15.48-6.75-23.78l-.39-.68c-1.12-1.96-2.22-3.89-3.22-5.8-6.2-11.81-8.88-25.87-7.64-39.9Z"/>
    <path d="M141.9,297.67c10.2,5.7,22.72,6.35,32.64,1.72,10.26-4.81,17.24-15.24,17.38-25.95.03-2.59-.26-5.36-.54-8.03-.83-8.09-1.76-17.25,4.43-24.6,6.62-7.87,16.38-7.93,24.99-7.99,5.08-.03,10.26-.07,14.11-1.71,6.14-2.61,9.33-9.49,10.27-15.07,1.29-7.72.37-20.25-1.21-27.43-.06-.29-.1-.57-.11-.83-.47-.72-.93-1.45-1.36-2.21-5.3-9.36-7.62-20.96-6.92-34.51-4.05-1.32-7.86-2.87-11.37-4.63-2.46-1.25-4.95-2.63-7.43-4.03-8.11-4.56-15.73-8.82-23.33-7.91-15.57,1.89-21.77,23.89-23.3,30.59-.52,2.23-1,4.51-1.47,6.78-3.11,14.78-6.3,29.9-18.13,40.18-8.21,7.14-18.93,10.91-31.94,11.25,1.53,1.54,2.97,3.15,4.29,4.82,13.13,16.54,19.53,39.94,19.01,69.56h0Z"/>
    <path d="M186.25,510.09c-7.3-4.48-14.94-8.41-22.85-11.78,6.83,5.4,14.59,9.38,22.85,11.78Z"/>
  </g>
  <g>
    <path d="M803.67,487.27c-25.89,27.41-63.59,41.1-113.1,41.1h-.56c-17.01,0-32.7-1.6-47.06-4.81-14.37-3.2-27.41-8.59-39.13-16.15-11.71-7.56-22.3-16.82-31.74-27.79l47.06-68.02c1.89,2.27,3.58,4.35,5.1,6.24,7.55,10.2,16.73,17.57,27.49,22.1,10.78,4.54,23.54,6.81,38.28,6.81h.56c22.29,0,39.21-6.32,50.74-19,11.53-12.65,17.3-31.84,17.3-57.55v-161.01h-125.3v-79.94h209.2v241.51c0,50.27-12.95,89.11-38.84,116.5Z"/>
    <path d="M1176.99,521.57l-30.61-82.21h-167.25l-31.18,82.21h-88.44l157.61-392.32h91.27l157.61,392.32h-89.01ZM1005.78,365.66h113.95l-57.26-150.24-56.69,150.24Z"/>
    <path d="M1591.42,355.74c12.09,14.18,18.14,33.55,18.14,58.12,0,36.66-13.24,63.77-39.69,81.35-26.46,17.57-61.61,26.37-105.44,26.37h-173.49V129.25h163.28c48,0,84.09,8.89,108.28,26.64,24.19,17.78,36.28,44.42,36.28,79.95,0,26.45-5.29,46.77-15.87,60.94-10.58,14.17-25.9,24.1-45.92,29.76,24.18,5.3,42.33,15.03,54.43,29.2ZM1374.85,202.39v89h83.34c18.89,0,33.16-3.12,42.79-9.35,9.64-6.24,14.47-17.48,14.47-33.73,0-10.97-2.27-19.75-6.81-26.37-4.54-6.61-11.34-11.53-20.4-14.74-9.08-3.2-20.42-4.81-34.02-4.81h-79.36ZM1511.2,438.23c10.38-6.8,15.59-18.52,15.59-35.15,0-15.11-4.92-26.65-14.74-34.59-9.83-7.93-25.71-11.9-47.62-11.9h-89.58v91.83h89.58c20.78,0,36.37-3.39,46.77-10.2Z"/>
    <path d="M1931.58,147.96c30.24,17.01,53.39,40.54,69.46,70.58,16.06,30.05,24.08,64.92,24.08,104.61v3.97c0,39.69-8.03,74.64-24.08,104.88-16.07,30.25-39.22,53.86-69.46,70.87-30.24,17.01-65.58,25.51-106.02,25.51h-.56c-40.45,0-75.79-8.49-106.02-25.51-30.25-17.01-53.49-40.62-69.73-70.87-16.26-30.24-24.19-65.19-23.81-104.88v-3.97c0-39.69,8.02-74.56,24.08-104.61,16.07-30.05,39.21-53.57,69.46-70.58,30.23-17.01,65.56-25.51,106.02-25.51h.56c40.44,0,75.78,8.49,106.02,25.51ZM1886.79,433.98c17.38-10.39,30.7-24.85,39.97-43.37,9.26-18.52,13.89-39.5,13.89-62.94v-5.1c0-23.43-4.64-44.31-13.89-62.65-9.27-18.33-22.59-32.69-39.97-43.08-17.38-10.39-37.8-15.59-61.23-15.59h-.56c-23.44,0-43.86,5.2-61.23,15.59-17.39,10.39-30.71,24.75-39.97,43.08-9.27,18.34-13.89,39.22-13.89,62.65v5.1c0,23.44,4.62,44.42,13.89,62.94,9.26,18.52,22.58,32.97,39.97,43.37,17.37,10.41,37.79,15.59,61.23,15.59h.56c23.43,0,43.84-5.18,61.23-15.59ZM1835.21,6.8h94.12l-82.78,89.58h-76.53l65.19-89.58Z"/>
    <path d="M2060.83,129.25h74.27l194.46,257.39-7.93,1.13V129.25h81.63v392.32h-74.26l-193.9-257.39,7.37-1.13v258.53h-81.64V129.25Z"/>
  </g>
  <g>
    <g>
      <path d="M324.96,613.17c-54.18-5.27-108.89-11.36-160.13-29.74-27.02-9.69-53.55-23.29-72.12-45.16-16.98-19.99-26.12-45.49-32.16-71.02,34.6-4.96,71.82-9.2,106.32-3.58,34.5,5.61,68.29,19.35,94.03,43,31.81,29.24,47.95,66.42,64.06,106.5Z"/>
      <path d="M51.74,367.32c-8.87,39.31,18.81,77.47,58.94,81.24l16.69,1.57c1.27-.02,2.54-.03,3.81-.03h0c13.57,0,25.82.92,37.45,2.81,36.23,5.9,68.11,19.63,92.83,39.86l17.95,10.69c15.74,9.38,33.58,11.43,49.88,7.48-.04-.31-.05-.64,0-1.01.1-.76.24-1.37.4-2.03l.25-1.14c6.81-34.74,5.38-68.28-4.13-96.99-10.72-32.28-32.25-59.17-59.07-73.77-29.27-15.95-64.33-16.84-91.48-2.3l-2.22,1.2c-5.83,3.19-13.11,7.13-21.17,6.09-9.01-1.2-16.84-8.64-19.95-18.95-2.19-7.18-2.01-14.4-1.83-21.38l.07-2.65c.56-27.06-4.97-48.12-16.46-62.56-5.13-6.5-12.43-11.89-20.57-15.19-1.93-.79-3.09-1.13-4.57-1.57l-2.42-.66c-1-.17-1.66-.29-2.17-.47-9.17-1.67-16.49,4.17-24.8,4.17-7.54,0-19.85,6.94-23.08,9.84l-.56.55c-26.35,27.07-25.17,71.19,3.73,96.64l17.68,15.57-5.19,23.02Z"/>
    </g>
    <g>
      <path d="M393.97,509.89c-2.08-26.05-4.04-53.12,5.23-77.55,5.19-13.7,13.7-25.9,23.08-37.15,27.37-32.87,62.89-58.9,102.49-75.09,11.29,26.78,22.6,58.38,9.97,84.54-6.97,14.42-20.15,24.7-33.11,34.13-33.87,24.63-71,50.91-107.66,71.12Z"/>
      <path d="M389.01,428.47c4.93-13,12.84-25.79,24.89-40.26,16.26-19.53,35.23-36.7,56.18-50.99l9.29-8.15c30.31-26.58,30.36-73.74.1-100.39l-17.68-15.57,5.19-23.02c.7-3.1,1.09-6.19,1.35-9.27-.39-.19-.77-.39-1.08-.74-.73-.68-1.73-1.56-2.66-2.37-.96-.84-1.84-1.62-2.5-2.25-9.67-9.69-27.33-8-39.63-2.33-16.49,7.58-29.61,21.21-36,37.4-6.56,16.66-5.71,35.72,2.29,50.99.94,1.79,1.96,3.58,3,5.39l.38.67c5.63,9.77,12.64,21.95,7.38,34.28-5.45,12.7-20.55,16.44-31.81,15.79-4.33-.26-8.49-.95-13.08-1.74-5.8-1-11.28-1.94-16.65-1.57-8.78.6-17.21,5.55-23.13,13.58-5.92,8.03-8.16,17.53-6.14,26.09.15.62.18,1.27.11,1.91,12.34,14.56,22.05,31.86,28.12,50.14,9.92,29.94,11.59,64.64,4.94,100.48,14.25-6.64,26.3-18.29,33.09-34.05l7.63-17.71c1.14-8.86,3.13-17.68,6.4-26.3Z"/>
    </g>
  </g>
</svg>